<svg width="1481" height="723" viewBox="0 0 1481 723" fill="none" xmlns="http://www.w3.org/2000/svg">
<path d="M103.635 266.38V268.148C104.077 277.87 102.53 283.836 110.264 290.907C113.357 293.78 116.672 297.536 116.009 301.956C115.346 305.933 111.369 308.584 107.391 309.468C103.414 310.352 99.4367 309.91 95.4593 310.794C90.8191 311.678 86.3998 314.109 81.7596 313.888C76.0145 313.667 71.1533 309.689 67.176 305.712C63.1986 301.735 59.2213 297.094 53.6972 295.106C52.8134 294.664 51.4876 294.001 51.7085 293.117C51.7085 292.675 52.1505 292.454 52.5924 292.012C62.0938 283.836 63.6406 278.533 63.1987 266.38H103.635Z" fill="#CCA692"/>
<path d="M79.9918 209.813C82.4224 210.476 85.7368 207.383 87.2836 206.057C90.1561 203.847 93.2496 201.859 96.785 200.754C99.2156 199.87 102.088 199.207 104.519 199.87C108.275 200.975 110.706 204.731 111.369 208.488C112.694 216.221 108.938 224.397 110.043 232.131C110.264 233.236 110.485 235.666 112.252 234.561C112.915 234.119 112.473 232.794 113.357 232.131C115.125 230.805 116.009 233.015 116.009 234.119C116.451 238.539 116.009 243.621 114.02 247.819C112.915 250.25 111.148 250.913 109.601 252.901C107.833 254.89 108.275 258.646 107.612 261.077C107.17 262.624 106.507 264.171 105.624 265.496C103.635 268.369 99.8785 269.916 97.6688 272.346C95.4592 274.777 93.4705 277.207 90.377 278.975C88.6093 280.08 85.9578 280.08 83.5272 280.08C83.3062 280.08 82.8643 280.08 82.6433 280.08L79.1079 209.151C79.3289 209.593 79.7708 209.593 79.9918 209.813Z" fill="#F9CFB3"/>
<path d="M46.626 237.876C46.626 236.55 47.2888 234.34 49.0566 235.666C49.9404 236.108 49.4985 237.655 50.3824 237.876C52.1501 238.98 52.371 236.329 52.371 235.224C52.592 231.026 50.3823 227.048 50.8243 222.85C51.0452 219.094 50.8243 215.116 51.9291 211.36C53.0339 208.046 55.0226 205.173 57.8951 203.405C60.5467 201.859 63.8611 201.417 66.9546 202.08C69.6062 202.742 71.3739 204.51 73.3625 206.499C75.3512 208.708 76.2351 208.708 79.1076 209.371L82.643 280.301C80.4334 280.522 78.2237 280.522 76.677 279.859C73.3625 278.533 71.1529 276.323 68.7223 274.114C66.0708 271.683 62.3144 270.578 60.1047 267.927C58.9999 266.601 58.1161 265.275 57.6742 263.728C56.7903 261.298 57.0112 257.541 55.0226 255.774C53.2549 254.227 51.4872 253.564 50.1614 251.133C47.7308 247.156 46.626 242.295 46.626 237.876Z" fill="#E2BBA1"/>
<path d="M114.241 229.037C113.578 232.131 112.694 235.224 112.031 237.876C111.81 238.981 111.368 240.527 111.147 241.632C110.926 242.074 110.926 242.516 110.484 242.958C110.484 242.958 108.937 244.063 109.158 243.842C109.6 239.202 110.042 235.003 109.6 230.363C108.717 222.629 110.263 209.814 98.9941 210.255C95.6797 210.476 92.3652 211.581 89.2717 212.686C86.1782 213.791 82.6428 214.675 79.3284 214.233C74.0252 213.349 70.0479 208.709 64.7448 208.046C56.5691 206.941 53.6966 214.233 53.2547 220.641C53.0337 225.06 52.5918 229.258 52.8127 233.899C53.0337 235.666 53.4757 237.213 53.6966 238.981C53.6966 239.644 55.0224 244.726 54.5805 245.168C54.3595 245.389 53.9176 244.947 53.6966 244.726C47.5096 233.015 43.5323 216.884 50.8241 204.289C52.3708 201.859 54.3595 199.649 56.5692 197.661C62.5352 191.915 68.5012 186.17 74.4672 180.646C74.6881 180.425 74.9091 180.204 75.1301 180.204C76.2349 179.542 77.5607 180.646 78.4445 181.309C88.8298 189.927 103.634 190.811 112.031 202.743C117.334 209.372 116.008 219.978 114.241 229.037Z" fill="#594A42"/>
<path d="M68.0594 335.983C68.2804 336.867 68.5014 337.972 68.7223 338.856H92.8073C95.6799 332.89 98.3314 326.924 101.425 321.179C104.96 314.771 109.822 309.247 112.915 302.618C114.241 299.745 115.567 296.431 114.904 293.337C114.02 288.918 107.612 287.15 107.612 287.15C105.181 289.36 97.6685 295.989 86.1784 296.873C69.8271 298.419 58.558 287.592 57.0112 285.824C56.5693 291.128 56.5693 296.873 58.558 301.734C63.4192 313.003 65.6288 324.493 68.0594 335.983Z" fill="#CAD9E0"/>
<path d="M26.0767 311.236C26.2977 320.516 26.7396 329.576 27.1815 338.856H73.3629L65.1873 313.666C65.1873 313.666 57.6745 285.604 57.2326 285.825C53.2552 287.372 52.8133 288.255 49.0569 290.244C44.8586 292.454 40.2184 293.779 35.5782 294.663C32.7056 295.326 20.3317 299.083 19.0059 302.397C18.122 305.27 25.8558 308.363 26.0767 311.236Z" fill="#6A3D9B"/>
<path d="M131.255 338.856C132.36 325.598 134.57 312.119 136.116 299.082C131.697 297.315 127.499 293.779 122.638 292.454C119.765 291.57 106.949 286.488 106.949 286.488C106.949 286.488 96.7848 317.201 93.6913 324.493C92.8075 326.482 90.3769 332.227 87.5044 338.856H131.255Z" fill="#6A3D9B"/>
<path d="M87.2808 233.899V239.423C87.2808 239.423 96.7822 234.119 105.842 233.899C105.842 230.584 87.2808 233.899 87.2808 233.899Z" fill="#594A42"/>
<path d="M76.454 233.899V239.423C76.454 239.423 66.9526 234.119 57.8931 233.899C57.8931 230.584 76.454 233.899 76.454 233.899Z" fill="#594A42"/>
<path d="M106.947 260.414C106.947 260.856 106.726 261.298 106.726 261.519C106.284 262.403 105.842 263.287 105.179 263.949C104.516 264.612 104.295 265.496 103.854 266.38C102.97 267.927 101.644 269.695 100.097 270.799C96.3408 273.672 92.3634 276.323 88.3861 278.312C87.7232 278.533 87.0603 278.975 86.3974 278.975C84.4088 278.754 83.3039 273.893 81.5362 276.986C81.0943 277.649 80.8733 278.533 80.2104 278.975C76.896 281.406 69.6042 274.556 67.1736 272.788C66.0688 271.904 64.9639 271.02 63.8591 270.136C62.9753 269.253 62.0914 268.148 61.4285 267.043C59.8818 264.833 58.3351 262.624 58.1141 260.193C57.8931 261.961 57.8931 263.729 58.556 265.275C58.777 265.717 58.9979 266.159 59.2189 266.601C60.9866 269.695 62.7543 273.009 65.6268 275.219C68.2784 277.428 71.3719 278.975 74.0235 280.964C76.2331 282.51 79.1056 283.615 81.9782 284.057C84.8507 283.615 87.7232 282.51 89.9328 280.964C92.8054 278.754 96.1198 277.207 98.9924 274.777C100.097 273.893 100.981 272.788 101.865 271.904C102.749 270.799 103.633 269.916 104.295 268.811C104.737 267.927 105.179 266.822 105.842 265.938C106.505 263.949 107.389 262.403 106.947 260.414Z" fill="#594A42"/>
<path d="M35.3542 338.856C35.3542 337.972 35.3542 337.089 35.3542 335.984C35.3542 328.692 33.5865 321.4 31.8188 314.329C31.1559 311.236 30.493 308.142 30.7139 305.049C30.9349 302.397 32.7026 299.525 32.2607 296.873C32.2607 296.652 32.2607 296.431 32.0397 296.21C31.8188 295.989 31.3768 296.21 31.1559 296.21C30.051 296.652 28.9462 297.094 27.6204 297.536C22.3173 299.525 15.0255 301.292 11.4901 306.154C6.6289 312.783 3.75639 323.831 1.76772 331.785C1.10482 334.216 0.662891 336.426 0 338.856H35.3542Z" fill="#6A3D9B"/>
<path d="M132.136 311.457C131.694 320.516 130.589 329.576 130.147 338.856H159.094C157.326 331.785 155.558 324.494 153.791 317.644C151.802 309.026 145.394 299.304 135.672 299.525C129.043 299.525 132.357 307.037 132.136 311.457Z" fill="#6A3D9B"/>
<path d="M1370.74 134.573C1374.27 140.76 1378.03 146.947 1381.57 153.355C1382.01 154.018 1383.56 156.228 1385.32 158.879H1400.13C1406.09 150.483 1412.72 142.528 1420.01 135.015C1431.73 123.083 1442.55 115.791 1456.69 107.174C1451.39 110.488 1446.53 107.837 1440.78 107.837C1437.25 107.837 1435.04 106.732 1434.16 106.29C1433.05 105.848 1427.31 103.638 1424.21 99.882C1418.25 92.3693 1420.68 78.2276 1420.68 78.2276C1420.68 78.2276 1413.83 79.3324 1401.9 78.4486C1398.14 78.2276 1394.38 77.5647 1390.63 77.5647C1388.86 77.5647 1385.76 77.1228 1384.44 78.2276C1383.11 79.1115 1382.67 79.5534 1382.67 79.9953C1382.45 81.3211 1383.11 82.4259 1383.33 82.8678C1385.32 85.9613 1384.22 94.5789 1380.46 99.882C1379.14 101.871 1374.94 104.301 1366.32 109.383C1363.23 111.372 1359.91 113.14 1359.69 116.012C1359.47 117.338 1359.91 118.664 1360.8 120.211C1363.67 124.63 1367.65 129.27 1370.74 134.573Z" fill="#DEB09D"/>
<path d="M1368.53 24.7542C1365.66 31.1622 1364.99 38.6749 1365.88 45.9667C1361.02 46.4087 1362.12 53.0376 1364.55 58.5617C1365.88 61.8761 1367.65 64.7486 1368.75 65.8535C1370.08 67.1792 1371.18 67.8421 1372.29 68.0631C1376.93 78.0065 1383.11 87.2869 1393.06 91.4852C1395.05 92.3691 1397.03 92.811 1398.8 93.032V7.51907C1386.43 7.07715 1374.28 12.3803 1368.53 24.7542Z" fill="#E2BBA1"/>
<path d="M1434.16 43.7571C1433.71 30.9412 1428.63 18.5672 1417.36 12.1593C1415.37 11.0545 1413.39 10.1706 1411.18 9.50772C1407.2 8.18193 1403.22 7.51904 1399.24 7.51904V93.0319C1412.06 93.9158 1423.99 79.9951 1429.74 67.1792C1435.26 64.3067 1439.02 58.3407 1439.46 51.9327C1439.46 48.8392 1437.25 44.199 1434.16 43.7571Z" fill="#F9CFB3"/>
<path d="M1413.83 158.879C1420.46 137.446 1426.2 116.675 1426.42 108.279C1394.16 129.491 1378.47 110.267 1378.47 110.267L1367.43 158.437C1367.43 158.437 1367.43 158.658 1367.43 158.879H1413.83Z" fill="white"/>
<path d="M1475.7 121.094C1474.81 117.338 1472.6 114.024 1469.29 112.035C1469.07 111.814 1468.63 111.372 1468.18 111.151C1465.53 109.162 1461.78 108.279 1458.68 107.395C1441.23 102.754 1423.99 99.882 1423.99 99.882C1424.21 107.837 1426.86 116.233 1420.46 131.48C1415.15 144.517 1407.86 153.576 1402.78 158.879H1454.93H1463.1H1480.78C1480.34 150.925 1476.58 125.293 1475.7 121.094Z" fill="#1C75BC"/>
<path d="M1330.08 121.094C1330.97 117.338 1333.18 114.023 1336.49 112.035C1336.71 111.814 1337.15 111.372 1337.59 111.151C1340.25 109.162 1344 108.278 1347.1 107.394C1364.55 102.754 1380.24 99.6606 1380.24 99.6606C1380.02 106.511 1380.46 118.443 1385.54 131.921C1390.63 145.179 1398.14 154.239 1403 159.1H1350.85H1342.68H1325C1325.66 150.924 1329.2 125.292 1330.08 121.094Z" fill="#1C75BC"/>
<path d="M1425.1 158.879C1432.61 149.157 1440.12 140.097 1447.64 131.7L1437.69 125.072L1447.64 112.477L1439.24 101.428L1423.11 98.114C1422.89 106.069 1422.45 116.675 1417.81 129.712C1413.39 142.749 1407.2 152.25 1402.56 158.658H1425.1V158.879Z" fill="#186EA8"/>
<path d="M1380.24 158.879C1372.73 149.157 1365.21 140.097 1357.7 131.701L1367.65 125.072L1357.7 112.477L1364.99 103.638L1380.24 99.4401C1381.12 107.174 1382.89 116.675 1386.65 127.061C1391.29 140.539 1397.48 151.146 1402.78 158.658H1380.24V158.879Z" fill="#186EA8"/>
<path d="M1365.44 45.9668C1365.88 49.7232 1366.98 53.7005 1368.09 57.236C1364.77 47.5136 1370.74 31.8252 1376.93 24.0914C1400.79 40.4427 1426.2 47.7345 1430.4 54.5844C1431.28 52.3748 1431.95 49.9442 1432.83 47.7345C1433.05 47.0716 1433.49 45.083 1434.16 44.641C1434.38 44.641 1436.14 44.4201 1436.14 44.641C1436.81 33.8138 1436.81 22.1028 1429.74 13.7061C1422.67 5.30952 1411.84 -0.214569 1400.57 0.00639453C1375.6 0.227358 1362.34 23.4285 1365.44 45.9668Z" fill="#594A42"/>
<path d="M1441.01 95.0208C1441.23 107.395 1435.7 119.769 1425.98 127.502C1430.18 121.315 1429.96 113.14 1427.97 105.848C1425.98 98.5563 1422.67 91.7064 1421.12 84.4146C1420.9 83.3098 1420.68 82.4259 1420.46 81.3211C1423.99 77.1228 1427.09 72.0406 1429.3 67.4004C1436.37 74.6922 1440.79 84.6355 1441.01 95.0208Z" fill="#594A42"/>
<path d="M1174.85 443.862L1175.07 445.63L1175.73 460.876L1154.3 480.321L1146.79 473.471L1134.64 462.423L1133.75 443.862H1174.85Z" fill="#E2A77D"/>
<path d="M1151.21 386.633C1153.64 387.296 1156.95 384.202 1158.5 382.876C1161.37 380.667 1164.47 378.678 1168 377.352C1170.43 376.468 1173.3 375.805 1175.96 376.468C1179.71 377.573 1182.14 381.33 1183.03 385.307C1184.35 393.262 1180.6 401.437 1181.7 409.392C1181.92 410.497 1182.14 412.927 1183.91 411.823C1184.57 411.381 1184.13 410.055 1185.02 409.392C1186.78 408.066 1187.67 410.276 1187.67 411.381C1188.11 416.021 1187.67 420.882 1185.68 425.301C1184.57 427.732 1182.81 428.616 1181.26 430.384C1179.49 432.372 1179.93 436.129 1179.27 438.559C1178.83 440.327 1178.17 441.653 1177.28 443.199C1175.29 446.072 1171.54 447.619 1169.33 450.27C1167.12 452.701 1165.13 455.131 1162.04 456.899C1160.27 458.004 1157.39 458.004 1154.96 458.004C1154.74 458.004 1154.3 458.004 1154.08 458.004L1150.54 386.412C1150.54 386.412 1150.77 386.412 1151.21 386.633Z" fill="#FFC28E"/>
<path d="M1117.4 414.916C1117.4 413.59 1118.06 411.38 1119.83 412.485C1120.71 412.927 1120.27 414.474 1121.16 414.916C1123.15 416.021 1123.15 413.369 1123.15 412.264C1123.37 408.066 1121.16 404.088 1121.38 399.89C1121.6 396.134 1121.38 392.156 1122.48 388.4C1123.59 385.086 1125.58 382.213 1128.45 380.445C1131.1 378.899 1134.64 378.457 1137.73 379.12C1140.38 379.782 1142.37 381.55 1144.14 383.539C1146.13 385.749 1147.01 385.748 1150.1 386.411L1153.64 458.004C1151.43 458.225 1149.22 458.225 1147.45 457.562C1144.14 456.236 1141.93 454.026 1139.5 451.596C1136.85 449.165 1133.09 448.06 1130.88 445.409C1129.77 444.083 1128.89 442.757 1128.45 441.21C1127.56 438.78 1127.79 435.023 1125.8 433.256C1124.03 431.709 1122.26 431.046 1120.71 428.615C1118.51 424.417 1117.4 419.556 1117.4 414.916Z" fill="#F0B784"/>
<path d="M1185.46 405.856C1184.79 408.508 1184.57 411.16 1184.57 413.59L1181.26 413.811C1181.26 413.148 1181.26 412.485 1181.26 412.264C1181.26 410.497 1181.04 409.171 1181.04 407.403C1180.15 399.89 1183.03 374.701 1167.34 382.655C1165.13 383.76 1162.92 385.528 1160.71 386.633C1154.3 390.168 1145.9 390.389 1139.28 386.854C1135.52 384.865 1129.77 380.446 1126.02 384.644C1123.59 387.295 1124.47 394.366 1124.25 397.681C1124.03 402.321 1123.59 406.519 1123.81 411.16C1124.03 413.148 1124.47 414.916 1124.47 416.684C1119.39 418.672 1120.49 412.927 1119.61 410.055C1118.06 405.194 1117.62 400.774 1117.4 395.913C1117.18 391.052 1115.41 385.749 1116.96 380.888C1120.05 371.386 1132.65 366.304 1141.49 364.315C1150.99 362.106 1161.37 362.769 1170.65 365.641C1174.41 366.746 1180.38 368.735 1183.03 371.828C1185.68 375.142 1186.12 381.109 1186.78 385.086C1188.11 391.936 1187 399.228 1185.46 405.856Z" fill="#2B0D04"/>
<path d="M1134.86 458.667L1124.47 467.506C1126.46 471.262 1128.89 475.46 1131.99 479.88C1136.18 485.625 1140.38 490.265 1144.14 493.8C1144.14 493.8 1147.01 482.531 1154.52 477.007C1143.26 473.251 1134.86 458.667 1134.86 458.667Z" fill="white"/>
<path d="M1154.52 522.084V477.228C1154.52 477.228 1149.66 487.614 1143.92 484.962L1135.08 463.308L1127.35 466.843L1118.29 470.82L1115.41 471.704L1108.12 473.914L1097.52 477.228C1090 479.438 1083.37 483.636 1077.85 489.381L1076.52 490.707C1074.76 492.475 1073.65 494.684 1073.21 497.115C1072.77 499.767 1071.88 517.444 1071 522.305H1154.52V522.084Z" fill="#414042"/>
<path d="M1238.05 522.084C1237.16 517.002 1236.28 499.546 1235.84 496.894C1235.4 494.463 1234.29 492.254 1232.52 490.486C1226.34 484.078 1218.6 479.217 1209.99 476.565L1201.15 473.914L1193.85 471.704L1190.98 470.82L1181.92 466.843L1174.19 463.307L1165.35 484.962C1159.61 487.834 1154.74 477.228 1154.74 477.228V522.084H1238.05Z" fill="#231F20"/>
<path d="M1171.98 522.083L1176.62 496.672L1156.73 474.797H1154.08C1154.08 474.797 1133.09 496.451 1133.31 497.998L1137.73 522.083H1171.98Z" fill="#BAD1DD"/>
<path d="M1151.21 489.381L1146.79 522.083H1163.14L1158.72 489.381C1158.5 488.276 1158.72 487.392 1159.16 486.508L1161.81 481.647C1162.04 481.426 1161.81 480.984 1161.59 480.763C1160.49 479.658 1159.6 478.774 1158.5 477.67C1157.84 477.007 1156.95 476.344 1156.51 475.46C1156.29 474.797 1155.41 473.471 1154.52 473.913C1153.64 474.355 1153.42 475.239 1152.98 475.902C1152.53 476.565 1151.65 477.228 1150.99 477.891C1150.1 478.774 1149.22 479.658 1148.11 480.542C1147.89 480.763 1147.89 481.205 1147.89 481.426L1150.55 486.287C1151.21 487.171 1151.43 488.276 1151.21 489.381Z" fill="#3D5872"/>
<path d="M1155.41 473.029C1155.18 473.25 1154.74 473.25 1154.3 473.029L1134.41 454.026L1130 467.726L1138.61 497.777L1154.3 474.576C1154.52 474.134 1155.18 474.134 1155.63 474.576L1171.32 497.777L1179.93 467.726L1175.51 454.026L1155.41 473.029Z" fill="#E4F4FF"/>
<path d="M1183.47 522.084L1200.04 489.16L1182.59 484.52L1201.59 478.333C1198.94 475.018 1197.17 473.693 1192.97 470.599C1185.24 466.18 1179.93 463.97 1178.39 463.307L1169.55 495.126L1164.91 522.084H1183.47Z" fill="#414042"/>
<path d="M1109.67 489.16L1126.24 522.083H1144.58L1137.29 487.171L1131.32 463.086C1129.55 463.528 1122.48 465.075 1116.74 469.715C1113.42 472.146 1110.99 474.576 1108.12 478.112L1127.12 484.299L1109.67 489.16Z" fill="#231F20"/>
<path d="M1186.12 408.287L1185.24 406.078C1185.24 406.078 1174.85 406.078 1169.99 406.299C1165.13 406.52 1159.38 408.066 1156.95 410.939V410.718C1155.63 411.381 1154.3 411.823 1153.42 411.823C1152.53 411.823 1151.21 411.602 1149.88 410.939V411.16C1147.23 408.287 1141.49 407.183 1136.62 407.404C1131.54 407.624 1119.39 409.392 1119.39 409.392L1118.73 412.486L1123.81 415.137C1123.81 415.579 1123.81 416.021 1123.81 416.463C1124.47 422.871 1131.1 425.964 1137.29 425.744C1137.51 425.744 1137.73 425.744 1137.73 425.744C1138.83 425.744 1139.94 425.523 1141.04 425.081C1145.68 423.755 1149.22 420.44 1150.77 416.021C1150.99 415.358 1151.21 414.695 1150.99 414.253C1151.87 414.474 1152.75 414.474 1153.42 414.474C1154.08 414.474 1154.96 414.253 1155.85 414.032C1155.85 414.695 1156.07 415.137 1156.29 415.8C1158.28 420.219 1162.04 423.092 1166.68 424.197C1167.78 424.418 1168.89 424.639 1169.99 424.639C1170.21 424.639 1170.43 424.639 1170.43 424.639C1176.62 424.418 1183.03 420.882 1183.25 414.474C1183.25 414.032 1183.25 413.591 1183.25 413.149L1186.12 408.287ZM1147.89 415.137C1146.57 418.673 1143.7 421.545 1139.94 422.429C1139.06 422.65 1138.17 422.871 1137.29 422.871H1136.85C1131.98 423.092 1126.68 420.661 1126.24 415.8C1126.02 414.695 1126.46 413.591 1127.12 412.707C1128.67 410.939 1132.21 409.834 1136.4 409.834C1141.49 409.613 1146.35 410.939 1147.67 412.928C1148.11 413.811 1148.34 414.474 1147.89 415.137ZM1170.21 421.987H1169.77C1168.89 421.987 1168 421.987 1166.9 421.766C1163.14 420.882 1160.05 418.452 1158.5 414.916C1158.06 414.253 1158.28 413.591 1158.72 412.928C1160.05 410.939 1164.91 409.171 1169.77 409.171C1173.97 408.95 1177.5 409.834 1179.05 411.602C1179.93 412.486 1180.38 413.37 1180.15 414.695C1180.15 419.115 1175.29 421.766 1170.21 421.987Z" fill="#020202"/>
<path d="M689.31 716.291C687.1 689.997 683.565 642.931 684.228 629.673C686.437 574.874 662.352 565.373 647.327 563.384C630.534 561.175 603.797 567.804 597.389 601.39C592.307 627.685 595.179 690.438 596.726 716.512H689.31V716.291Z" fill="#B7233C"/>
<path d="M611.752 618.626C611.089 617.079 611.31 615.753 610.205 614.427C609.321 613.102 607.774 612.439 606.228 612.218C601.366 612.218 600.703 617.963 602.692 621.277C603.576 622.824 604.902 624.15 605.786 625.917C607.332 628.79 607.774 632.767 611.531 633.209C613.74 633.43 615.066 632.546 615.508 631.441C616.613 629.011 615.287 624.592 613.961 622.603C613.298 621.277 612.194 619.951 611.752 618.626Z" fill="#E2B477"/>
<path d="M621.253 635.861C622.8 645.362 624.788 657.073 621.474 665.47C617.718 674.971 613.077 676.96 604.681 680.274C608.658 685.577 612.414 691.322 617.055 696.184C621.695 701.045 627.44 705.022 634.069 706.348C636.057 706.79 638.046 706.79 640.256 706.79V635.861C632.743 635.419 621.474 635.198 621.253 635.861Z" fill="#D2A965"/>
<path d="M613.961 586.365C605.785 597.855 606.006 613.764 610.867 626.58C614.845 636.745 627.44 654.422 640.035 653.98V573.549C630.312 573.107 619.706 578.41 613.961 586.365Z" fill="#E2B477"/>
<path d="M640.034 722.036V702.592C620.589 701.045 611.53 689.555 604.68 680.274C584.572 687.787 580.816 689.555 574.187 699.719C573.524 700.603 573.082 701.487 572.861 702.371C571.756 705.022 569.768 711.651 568 722.257H640.034V722.036Z" fill="#F967A9"/>
<path d="M673.842 612.218C672.295 612.218 670.749 613.101 669.865 614.427C668.76 615.753 668.981 617.079 668.318 618.625C667.876 619.951 666.55 621.277 665.888 622.603C664.562 624.812 663.236 629.011 664.341 631.441C665.004 632.767 666.108 633.651 668.318 633.209C672.295 632.767 672.737 628.79 674.063 625.917C674.947 624.15 676.273 622.824 677.157 621.277C679.366 618.184 678.703 612.218 673.842 612.218Z" fill="#EDBD83"/>
<path d="M658.596 665.47C655.282 657.073 657.27 645.583 658.817 635.861C658.596 635.198 647.327 635.419 640.035 635.64V706.569C642.024 706.79 644.233 706.569 646.222 706.127C652.851 704.802 658.596 700.603 663.236 695.963C667.877 691.102 671.633 685.578 675.61 680.054C666.993 676.96 662.352 674.971 658.596 665.47Z" fill="#E2B477"/>
<path d="M640.035 573.549L639.814 653.98C652.188 654.422 665.225 636.744 669.203 626.58C674.064 613.764 674.506 597.855 666.109 586.365C660.585 578.41 649.979 573.107 640.035 573.549Z" fill="#EDBD83"/>
<path d="M712.069 722.037C710.523 711.43 708.313 705.022 707.208 702.15C706.766 701.266 706.324 700.382 705.882 699.498C699.032 689.334 695.497 687.787 675.389 680.053C668.539 689.555 659.48 700.824 640.035 702.371V721.816H712.069V722.037Z" fill="#E54E9A"/>
<path d="M671.854 581.503C670.97 580.84 655.503 571.118 654.398 570.897C653.293 570.676 626.778 571.339 626.115 572.002C625.452 572.664 607.996 585.038 606.67 585.259V611.333L608.88 617.299C608.88 617.299 607.775 607.135 610.647 600.064C613.741 592.993 623.684 585.259 623.684 585.259C623.684 585.259 629.871 593.214 643.129 595.645C638.71 592.33 634.29 586.364 634.29 586.364C634.29 586.364 646.001 595.645 650.2 597.191C649.316 594.54 645.56 587.248 645.56 587.248C645.56 587.248 657.05 594.54 659.48 601.169C661.469 599.622 656.608 590.342 656.608 590.342C656.608 590.342 671.412 603.378 669.866 616.194C673.622 610.67 677.378 609.786 675.832 604.925C675.39 604.704 672.738 582.387 671.854 581.503Z" fill="#B7233C"/>
<path d="M611.531 633.209C609.321 633.209 607.554 634.976 607.554 637.186C607.554 639.396 609.321 641.163 611.531 641.163C613.741 641.163 615.508 639.396 615.508 637.186C615.508 634.976 613.741 633.209 611.531 633.209Z" fill="#A4D7E7"/>
<path d="M667.877 633.429C665.667 633.429 663.899 635.197 663.899 637.407C663.899 639.616 665.667 641.384 667.877 641.384C670.086 641.384 671.854 639.616 671.854 637.407C671.854 635.197 670.086 633.429 667.877 633.429Z" fill="#A4D7E7"/>
<path d="M83.3359 377.112L95.5686 424.494C102.107 449.819 129.821 463.212 153.727 452.599L171.832 444.562C194.088 434.682 218.579 452.965 215.433 477.11V477.11C213.023 495.617 227.289 512.086 245.95 512.34L253.797 512.447C275.357 512.74 291.259 532.684 286.743 553.767V553.767C281.681 577.404 302.092 598.68 325.918 594.602L387.009 584.145C397.614 582.33 408.522 583.984 418.112 588.862L527.5 644.5" stroke="black" stroke-width="0.5"/>
<path d="M1384.47 184.662L1353.13 228.808C1348.51 235.312 1346.72 243.407 1348.16 251.253L1352.44 274.631C1354.73 287.072 1342.51 297.216 1330.7 292.69V292.69C1321.65 289.221 1311.6 294.422 1309.2 303.815L1308.19 307.765C1305.42 318.617 1293.41 324.221 1283.32 319.376V319.376C1272 313.944 1258.77 321.664 1257.93 334.192L1256.01 362.894C1255.48 370.701 1252.51 378.145 1247.52 384.169L1222.45 414.4" stroke="black" stroke-width="0.5"/>
<path d="M73.8447 355.621C74.169 366.704 73.2786 381.513 69.8779 391.381L83.6877 378.671L102.419 377.485C92.9388 373.117 81.6263 363.52 73.8447 355.621Z" fill="#0368FF"/>
<path d="M550.653 655.03C539.565 654.977 524.782 656.23 515 659.872L527.368 645.755L528.095 627C533.036 636.507 542.565 647.444 550.653 655.03Z" fill="#0368FF"/>
<path d="M751 675.5C747.928 642.942 955.075 620.686 1036.16 632.481C1137.52 647.224 770.79 733.841 905.323 643.538C932.967 626.952 1122.78 608.523 1143.05 569.822" stroke="black" stroke-width="0.5"/>
<path d="M730.731 689.008C737.12 679.945 744.552 667.106 747.165 657L751.663 675.222L766.627 686.551C756.003 685.162 741.58 686.717 730.731 689.008Z" fill="#0368FF"/>
<path d="M1154.64 549.937C1152.45 560.805 1150.82 575.551 1152.5 585.853L1141.04 570.988L1122.78 566.65C1133.06 563.639 1145.64 556.405 1154.64 549.937Z" fill="#0368FF"/>
<path d="M1202.54 428.596C1208.93 419.533 1216.36 406.694 1218.98 396.588L1223.47 414.81L1238.44 426.139C1227.81 424.751 1213.39 426.306 1202.54 428.596Z" fill="#0368FF"/>
<path d="M1394.22 170.306C1392.03 181.175 1390.4 195.92 1392.08 206.222L1380.62 191.358L1362.36 187.019C1372.64 184.009 1385.22 176.774 1394.22 170.306Z" fill="#0368FF"/>
</svg>
